# xmcd CD database file
#
# Track frame offsets:
#	180
#	14950
#	31537
#	46197
#	62200
#	80747
#	98205
#	112890
#	129695
#	145465
#	161827
#	174750
#
# Disc length: 2527 seconds
#
# Revision: 3
# Processed by: cddbd v1.5.2PL0 Copyright (c) Steve Scherf et al.
# Submitted via: CDex 1.79
#
DISCID=a009dd0c
DTITLE=Ian Tyson - Eighteen Inches Of Rain
DYEAR=1994
DGENRE=Country
TTITLE0=Horsethief Moon
TTITLE1=Heartaches Are Stealin'
TTITLE2=Eighteen Inches Of Rain
TTITLE3=M. C. Horses
TTITLE4=Big Horns
TTITLE5=Rodeo Road
TTITLE6=Chasin' The Moon
TTITLE7=Nobody Thought It Would
TTITLE8=Old House
TTITLE9=Alcohol In The Bloodstream
TTITLE10=Old Corrals And Sagebrush
TTITLE11=Til The Circle Is Through
EXTD=YEAR: 1994
EXTT0=
EXTT1=
EXTT2=
EXTT3=
EXTT4=
EXTT5=
EXTT6=
EXTT7=
EXTT8=
EXTT9=
EXTT10=
EXTT11=
PLAYORDER=
